<svg xmlns="http://www.w3.org/2000/svg" viewBox="-5 -15 130 130" width="512" height="512">
  <defs>
    <mask id="bus-mask">
      <rect x="-10" y="-20" width="150" height="150" fill="white" />
      <circle cx="35" cy="95" r="14" fill="black" />
      <circle cx="85" cy="95" r="14" fill="black" />
      <rect x="22" y="65" width="14" height="14" rx="2" fill="black" />
      <rect x="40" y="65" width="14" height="14" rx="2" fill="black" />
      <rect x="58" y="65" width="14" height="14" rx="2" fill="black" />
      <path d="M 76 65 L 86 65 A 2 2 0 0 1 88 66 L 94 77 A 2 2 0 0 1 92 79 L 76 79 A 2 2 0 0 1 74 77 L 74 67 A 2 2 0 0 1 76 65 Z" fill="black" />
    </mask>
  </defs>
  <g fill="#0abcca" stroke="#0abcca">
    <path d="M 26 58 A 34 34 0 0 1 94 58" stroke-width="8" fill="none" />
    <g transform="translate(60, 16) scale(1.6) translate(-60, -24)">
      <path d="M 57.5 24 C 53 4, 67 4, 62.5 24 Z" stroke="none" />
      <path d="M 57.5 24 C 53 4, 67 4, 62.5 24 Z" transform="translate(-6, 0) translate(60, 24) rotate(-65) scale(0.85) translate(-60, -24)" stroke="none" />
      <path d="M 57.5 24 C 53 4, 67 4, 62.5 24 Z" transform="translate(6, 0) translate(60, 24) rotate(65) scale(0.85) translate(-60, -24)" stroke="none" />
    </g>
    <rect x="15" y="58" width="90" height="35" rx="6" mask="url(#bus-mask)" stroke="none" />
    <circle cx="35" cy="95" r="10" stroke="none" />
    <circle cx="85" cy="95" r="10" stroke="none" />
    <path d="M 52 108 A 12 10 0 0 0 68 108" stroke-width="4" stroke-linecap="round" fill="none" />
  </g>
</svg>
